<?xml version="1.0" standalone="no"?>
<!DOCTYPE svg PUBLIC "-//W3C//DTD SVG 20010904//EN"
 "http://www.w3.org/TR/2001/REC-SVG-20010904/DTD/svg10.dtd">
<svg version="1.0" xmlns="http://www.w3.org/2000/svg"
 width="700.000000pt" height="700.000000pt" viewBox="0 0 700.000000 700.000000"
 preserveAspectRatio="xMidYMid meet">
<metadata>
Created by potrace 1.14, written by Peter Selinger 2001-2017
</metadata>
<g transform="translate(0.000000,700.000000) scale(0.100000,-0.100000)"
fill="#000000" stroke="none">
<path d="M3205 6789 c-930 -87 -1766 -560 -2328 -1318 -242 -325 -433 -734
-532 -1134 -190 -774 -96 -1578 271 -2304 338 -671 922 -1216 1619 -1513 55
-24 172 -66 260 -95 846 -279 1780 -192 2568 240 270 148 483 310 723 549 373
373 612 757 784 1262 437 1282 65 2664 -955 3543 -510 440 -1150 709 -1835
771 -133 12 -444 11 -575 -1z m605 -2721 l0 -532 221 297 221 297 269 0 270 0
-90 -107 c-558 -675 -512 -615 -492 -638 19 -21 546 -647 570 -678 13 -16 -2
-17 -256 -17 l-269 0 -219 302 -220 303 -3 -303 -2 -302 -220 0 -220 0 0 955
0 955 220 0 220 0 0 -532z m-1512 67 c107 -25 224 -98 272 -169 14 -20 28 -36
33 -36 4 0 7 45 7 100 l0 100 215 0 216 0 -4 -802 c-3 -892 0 -843 -72 -991
-67 -137 -159 -227 -297 -292 -100 -47 -198 -66 -348 -66 -183 0 -336 36 -453
105 -65 38 -164 132 -203 193 -36 56 -84 186 -84 227 l0 26 213 0 214 0 18
-41 c68 -149 348 -185 485 -62 74 66 91 120 98 311 2 83 2 152 -1 152 -3 0
-33 -29 -67 -64 -102 -107 -223 -156 -385 -156 -171 0 -297 53 -421 175 -68
67 -89 95 -127 175 -63 132 -82 222 -82 395 1 151 12 222 53 325 85 217 250
356 477 404 47 9 185 5 243 -9z m2977 -1006 c57 -16 139 -100 155 -159 43
-160 -74 -300 -251 -300 -110 0 -195 49 -235 134 -59 128 1 275 133 322 47 16
144 18 198 3z"/>
<path d="M2200 3761 c-170 -56 -254 -209 -229 -416 12 -91 48 -163 110 -219
59 -53 121 -76 204 -76 83 0 145 23 204 76 91 82 132 215 111 352 -20 124 -78
210 -174 259 -54 28 -176 41 -226 24z"/>
</g>
</svg>
