<svg width="552" height="552" viewBox="0 0 552 552" fill="none" xmlns="http://www.w3.org/2000/svg">
<g filter="url(#filter0_d)">
<circle cx="276" cy="272" r="256" fill="#2E3239"/>
<path d="M169.982 224.35C178.037 224.35 185.069 225.988 191.076 229.265C197.22 232.542 201.931 236.843 205.207 242.167V225.988H240.228V340.062C240.228 350.575 238.112 360.064 233.879 368.529C229.783 377.131 223.435 383.957 214.833 389.009C206.368 394.061 195.787 396.587 183.089 396.587C166.159 396.587 152.437 392.559 141.924 384.503C131.411 376.585 125.404 365.798 123.902 352.145H158.513C159.605 356.514 162.199 359.927 166.295 362.385C170.391 364.979 175.443 366.276 181.451 366.276C188.687 366.276 194.421 364.16 198.654 359.927C203.023 355.831 205.207 349.21 205.207 340.062V323.883C201.794 329.207 197.084 333.576 191.076 336.99C185.069 340.267 178.037 341.905 169.982 341.905C160.561 341.905 152.028 339.516 144.382 334.737C136.736 329.822 130.66 322.927 126.155 314.052C121.786 305.041 119.601 294.665 119.601 282.923C119.601 271.181 121.786 260.873 126.155 251.998C130.66 243.123 136.736 236.297 144.382 231.518C152.028 226.739 160.561 224.35 169.982 224.35ZM205.207 283.127C205.207 274.389 202.75 267.494 197.835 262.443C193.056 257.391 187.185 254.865 180.222 254.865C173.259 254.865 167.319 257.391 162.404 262.443C157.626 267.358 155.236 274.185 155.236 282.923C155.236 291.661 157.626 298.624 162.404 303.812C167.319 308.864 173.259 311.39 180.222 311.39C187.185 311.39 193.056 308.864 197.835 303.812C202.75 298.761 205.207 291.866 205.207 283.127Z" fill="white"/>
<path d="M335.401 340.267L300.585 292.343V340.267H265.564V188.715H300.585V272.478L335.196 225.988H378.409L330.895 283.332L378.819 340.267H335.401Z" fill="white"/>
<path d="M408.548 341.905C402.404 341.905 397.352 340.13 393.393 336.58C389.57 332.894 387.659 328.388 387.659 323.063C387.659 317.602 389.57 313.028 393.393 309.342C397.352 305.655 402.404 303.812 408.548 303.812C414.556 303.812 419.471 305.655 423.294 309.342C427.253 313.028 429.233 317.602 429.233 323.063C429.233 328.388 427.253 332.894 423.294 336.58C419.471 340.13 414.556 341.905 408.548 341.905Z" fill="white"/>
</g>
<defs>
<filter id="filter0_d" x="0" y="0" width="552" height="552" filterUnits="userSpaceOnUse" color-interpolation-filters="sRGB">
<feFlood flood-opacity="0" result="BackgroundImageFix"/>
<feColorMatrix in="SourceAlpha" type="matrix" values="0 0 0 0 0 0 0 0 0 0 0 0 0 0 0 0 0 0 127 0" result="hardAlpha"/>
<feOffset dy="4"/>
<feGaussianBlur stdDeviation="10"/>
<feColorMatrix type="matrix" values="0 0 0 0 0 0 0 0 0 0 0 0 0 0 0 0 0 0 0.15 0"/>
<feBlend mode="normal" in2="BackgroundImageFix" result="effect1_dropShadow"/>
<feBlend mode="normal" in="SourceGraphic" in2="effect1_dropShadow" result="shape"/>
</filter>
</defs>
</svg>
