<svg width="100" height="100" viewBox="0 0 100 100" fill="none" xmlns="http://www.w3.org/2000/svg">
<g filter="url(#filter0_d)">
<circle cx="50" cy="46" r="30" fill="#2E3239"/>
<path d="M37.576 40.416C38.52 40.416 39.344 40.608 40.048 40.992C40.768 41.376 41.32 41.88 41.704 42.504V40.608H45.808V53.976C45.808 55.208 45.56 56.32 45.064 57.312C44.584 58.32 43.84 59.12 42.832 59.712C41.84 60.304 40.6 60.6 39.112 60.6C37.128 60.6 35.52 60.128 34.288 59.184C33.056 58.256 32.352 56.992 32.176 55.392H36.232C36.36 55.904 36.664 56.304 37.144 56.592C37.624 56.896 38.216 57.048 38.92 57.048C39.768 57.048 40.44 56.8 40.936 56.304C41.448 55.824 41.704 55.048 41.704 53.976V52.08C41.304 52.704 40.752 53.216 40.048 53.616C39.344 54 38.52 54.192 37.576 54.192C36.472 54.192 35.472 53.912 34.576 53.352C33.68 52.776 32.968 51.968 32.44 50.928C31.928 49.872 31.672 48.656 31.672 47.28C31.672 45.904 31.928 44.696 32.44 43.656C32.968 42.616 33.68 41.816 34.576 41.256C35.472 40.696 36.472 40.416 37.576 40.416ZM41.704 47.304C41.704 46.28 41.416 45.472 40.84 44.88C40.28 44.288 39.592 43.992 38.776 43.992C37.96 43.992 37.264 44.288 36.688 44.88C36.128 45.456 35.848 46.256 35.848 47.28C35.848 48.304 36.128 49.12 36.688 49.728C37.264 50.32 37.96 50.616 38.776 50.616C39.592 50.616 40.28 50.32 40.84 49.728C41.416 49.136 41.704 48.328 41.704 47.304ZM56.9611 54L52.8811 48.384V54H48.7771V36.24H52.8811V46.056L56.9371 40.608H62.0011L56.4331 47.328L62.0491 54H56.9611ZM65.533 54.192C64.813 54.192 64.221 53.984 63.757 53.568C63.309 53.136 63.085 52.608 63.085 51.984C63.085 51.344 63.309 50.808 63.757 50.376C64.221 49.944 64.813 49.728 65.533 49.728C66.237 49.728 66.813 49.944 67.261 50.376C67.725 50.808 67.957 51.344 67.957 51.984C67.957 52.608 67.725 53.136 67.261 53.568C66.813 53.984 66.237 54.192 65.533 54.192Z" fill="white"/>
</g>
<defs>
<filter id="filter0_d" x="0" y="0" width="100" height="100" filterUnits="userSpaceOnUse" color-interpolation-filters="sRGB">
<feFlood flood-opacity="0" result="BackgroundImageFix"/>
<feColorMatrix in="SourceAlpha" type="matrix" values="0 0 0 0 0 0 0 0 0 0 0 0 0 0 0 0 0 0 127 0" result="hardAlpha"/>
<feOffset dy="4"/>
<feGaussianBlur stdDeviation="10"/>
<feColorMatrix type="matrix" values="0 0 0 0 0 0 0 0 0 0 0 0 0 0 0 0 0 0 0.15 0"/>
<feBlend mode="normal" in2="BackgroundImageFix" result="effect1_dropShadow"/>
<feBlend mode="normal" in="SourceGraphic" in2="effect1_dropShadow" result="shape"/>
</filter>
</defs>
</svg>
