<svg width="60" height="60" viewBox="0 0 60 60" fill="none" xmlns="http://www.w3.org/2000/svg">
<circle cx="30" cy="30" r="30" fill="#2E3239"/>
<path d="M32.072 23.368C33.8 23.368 35.136 23.888 36.08 24.928C37.04 25.968 37.52 27.376 37.52 29.152V37H32.216V29.824C32.216 29.248 32.04 28.8 31.688 28.48C31.352 28.144 30.896 27.976 30.32 27.976C29.728 27.976 29.264 28.144 28.928 28.48C28.592 28.8 28.424 29.248 28.424 29.824V37H23.12V29.824C23.12 29.248 22.944 28.8 22.592 28.48C22.256 28.144 21.8 27.976 21.224 27.976C20.632 27.976 20.168 28.144 19.832 28.48C19.496 28.8 19.328 29.248 19.328 29.824V37H14V23.464H19.328V25.288C19.712 24.712 20.232 24.248 20.888 23.896C21.56 23.544 22.344 23.368 23.24 23.368C24.216 23.368 25.08 23.584 25.832 24.016C26.584 24.432 27.184 25.024 27.632 25.792C28.128 25.088 28.76 24.512 29.528 24.064C30.296 23.6 31.144 23.368 32.072 23.368Z" fill="white"/>
<path d="M43.2025 37.192C42.2745 37.192 41.5305 36.944 40.9705 36.448C40.4105 35.952 40.1305 35.328 40.1305 34.576C40.1305 33.808 40.4105 33.176 40.9705 32.68C41.5305 32.168 42.2745 31.912 43.2025 31.912C44.1145 31.912 44.8505 32.168 45.4105 32.68C45.9705 33.176 46.2505 33.808 46.2505 34.576C46.2505 35.328 45.9705 35.952 45.4105 36.448C44.8505 36.944 44.1145 37.192 43.2025 37.192Z" fill="white"/>
</svg>
