<svg width="20" height="20" viewBox="0 0 20 20" fill="none" xmlns="http://www.w3.org/2000/svg">
<g clip-path="url(#clip0)">
<path fill-rule="evenodd" clip-rule="evenodd" d="M15.7917 2.80963C15.6363 2.80963 15.4811 2.84178 15.3345 2.90571C15.1877 2.96969 15.0509 3.06497 14.9333 3.18874L4.424 14.2512L3.74058 16.8889L6.14996 16.1972L16.65 5.14457C16.7677 5.0207 16.8636 4.87089 16.9298 4.70247C16.9961 4.534 17.0308 4.35178 17.0308 4.16665C17.0308 3.98153 16.9961 3.79931 16.9298 3.63083C16.8636 3.46242 16.7677 3.31261 16.65 3.18874C16.5324 3.06497 16.3956 2.96969 16.2489 2.90571C16.1023 2.84178 15.9471 2.80963 15.7917 2.80963ZM14.5351 1.07239C14.9318 0.899416 15.359 0.809631 15.7917 0.809631C16.2244 0.809631 16.6515 0.899416 17.0482 1.07239C17.4448 1.24531 17.8017 1.49726 18.1 1.81124C18.3982 2.12511 18.6322 2.49497 18.7909 2.89849C18.9497 3.30194 19.0308 3.73272 19.0308 4.16665C19.0308 4.60058 18.9497 5.03136 18.7909 5.43482C18.6322 5.83834 18.3982 6.2082 18.1 6.52207L7.4125 17.7721C7.28976 17.9013 7.13473 17.9953 6.96344 18.0445L2.60927 19.2945C2.26425 19.3935 1.89261 19.3001 1.6355 19.0496C1.37839 18.7991 1.27527 18.43 1.3653 18.0825L2.5528 13.4992C2.59535 13.3349 2.67899 13.1842 2.79584 13.0612L13.4833 1.81124C13.7816 1.49726 14.1385 1.24531 14.5351 1.07239Z" fill="#383F50"/>
</g>
<defs>
<clipPath id="clip0">
<rect width="19" height="20" fill="white" transform="translate(0.75)"/>
</clipPath>
</defs>
</svg>
