<svg width="100" height="100" viewBox="0 0 100 100" fill="none" xmlns="http://www.w3.org/2000/svg">
<g filter="url(#filter0_d)">
<circle cx="50" cy="46" r="30" fill="#2E3239"/>
<path d="M52.072 39.368C53.8 39.368 55.136 39.888 56.08 40.928C57.04 41.968 57.52 43.376 57.52 45.152V53H52.216V45.824C52.216 45.248 52.04 44.8 51.688 44.48C51.352 44.144 50.896 43.976 50.32 43.976C49.728 43.976 49.264 44.144 48.928 44.48C48.592 44.8 48.424 45.248 48.424 45.824V53H43.12V45.824C43.12 45.248 42.944 44.8 42.592 44.48C42.256 44.144 41.8 43.976 41.224 43.976C40.632 43.976 40.168 44.144 39.832 44.48C39.496 44.8 39.328 45.248 39.328 45.824V53H34V39.464H39.328V41.288C39.712 40.712 40.232 40.248 40.888 39.896C41.56 39.544 42.344 39.368 43.24 39.368C44.216 39.368 45.08 39.584 45.832 40.016C46.584 40.432 47.184 41.024 47.632 41.792C48.128 41.088 48.76 40.512 49.528 40.064C50.296 39.6 51.144 39.368 52.072 39.368Z" fill="white"/>
<path d="M63.2025 53.192C62.2745 53.192 61.5305 52.944 60.9705 52.448C60.4105 51.952 60.1305 51.328 60.1305 50.576C60.1305 49.808 60.4105 49.176 60.9705 48.68C61.5305 48.168 62.2745 47.912 63.2025 47.912C64.1145 47.912 64.8505 48.168 65.4105 48.68C65.9705 49.176 66.2505 49.808 66.2505 50.576C66.2505 51.328 65.9705 51.952 65.4105 52.448C64.8505 52.944 64.1145 53.192 63.2025 53.192Z" fill="white"/>
</g>
<defs>
<filter id="filter0_d" x="0" y="0" width="100" height="100" filterUnits="userSpaceOnUse" color-interpolation-filters="sRGB">
<feFlood flood-opacity="0" result="BackgroundImageFix"/>
<feColorMatrix in="SourceAlpha" type="matrix" values="0 0 0 0 0 0 0 0 0 0 0 0 0 0 0 0 0 0 127 0" result="hardAlpha"/>
<feOffset dy="4"/>
<feGaussianBlur stdDeviation="10"/>
<feColorMatrix type="matrix" values="0 0 0 0 0 0 0 0 0 0 0 0 0 0 0 0 0 0 0.15 0"/>
<feBlend mode="normal" in2="BackgroundImageFix" result="effect1_dropShadow"/>
<feBlend mode="normal" in="SourceGraphic" in2="effect1_dropShadow" result="shape"/>
</filter>
</defs>
</svg>
